<svg width="79" height="16" viewBox="0 0 79 16" fill="none" xmlns="http://www.w3.org/2000/svg">
<path d="M11.142 11.454C10.652 13.81 8.739 15.397 5.987 15.397C2.324 15.397 0.318001 13.063 0.318001 9.379C0.318001 5.973 2.861 3.5 6.103 3.5C8.972 3.5 10.722 5.32 11.095 7.069L8.482 8.049C8.226 7.092 7.596 6.159 6.15 6.159C4.61 6.159 3.467 7.35 3.467 9.379C3.467 11.547 4.587 12.737 6.266 12.737C7.106 12.737 7.946 12.363 8.389 11.454H11.142Z" fill="white"/>
<path d="M72.95 3.5C69.567 3.5 67.071 5.973 67.071 9.379C67.071 12.831 69.567 15.397 72.95 15.397C76.192 15.397 78.688 12.831 78.688 9.379C78.688 5.973 76.192 3.5 72.95 3.5ZM72.95 12.737C71.387 12.737 70.011 11.618 70.011 9.379C70.011 7.28 71.388 6.066 72.95 6.066C74.373 6.066 75.772 7.28 75.772 9.379C75.772 11.618 74.373 12.737 72.95 12.737Z" fill="white"/>
<path d="M61.637 3.733H64.575V5.437C65.064 4.316 65.904 3.594 67.398 3.594C67.794 3.594 68.097 3.64 68.353 3.733C67.539 4.62 66.884 5.623 66.464 6.766H66.348C65.344 6.766 64.714 7.676 64.714 9.075V11.781C64.714 13.81 64.131 15.117 61.636 15.187L61.637 3.733Z" fill="white"/>
<path d="M57.718 0.980999H58.184V3.733H60.656L59.817 6.393H58.184V10.824C58.184 12.224 58.79 12.854 60.33 12.668V15.233C59.794 15.303 59.42 15.35 58.883 15.35C56.69 15.35 55.151 14.207 55.151 11.337V3.966C55.15 2.147 55.991 0.980999 57.718 0.980999Z" fill="white"/>
<path d="M54.171 11.781C54.171 13.483 52.724 15.397 49.646 15.397C47.126 15.397 45.19 14.277 44.958 11.874H47.687C47.92 12.668 48.597 13.134 49.647 13.134C50.673 13.134 51.14 12.597 51.14 12.037C51.14 11.454 50.79 11.058 49.903 10.871L48.295 10.52C46.148 10.055 45.169 9.168 45.169 7.139C45.169 5.156 47.059 3.5 49.508 3.5C51.958 3.5 53.638 4.596 54.032 6.627L51.396 7.303C51.328 6.556 50.813 5.763 49.507 5.763C48.69 5.763 48.083 6.23 48.083 6.86C48.083 7.442 48.526 7.769 49.179 7.933L50.86 8.329C53.237 8.889 54.171 9.915 54.171 11.781Z" fill="white"/>
<path d="M44.188 9.309C44.188 5.763 42.183 3.5 38.987 3.5C35.978 3.5 33.412 5.833 33.412 9.401C33.412 13.134 35.745 15.397 39.011 15.397C42.043 15.397 43.582 13.763 43.886 11.874H40.924C40.667 12.573 39.897 12.901 39.011 12.901C37.728 12.901 36.632 11.99 36.492 10.241H44.119C44.119 10.241 44.188 9.751 44.188 9.309ZM36.539 8.119C36.749 6.766 37.659 5.833 38.966 5.833C40.458 5.833 41.135 6.766 41.274 8.119H36.539Z" fill="white"/>
<path d="M28.069 15.397C27.019 15.397 26.506 14.767 26.133 13.717L22.704 3.733H25.923L28.466 11.944L30.868 3.733H33.831L30.542 13.717C30.192 14.767 29.679 15.397 28.629 15.397H28.069Z" fill="white"/>
<path d="M17.494 3.5C14.112 3.5 11.616 5.973 11.616 9.379C11.616 12.831 14.112 15.397 17.494 15.397C20.737 15.397 23.233 12.831 23.233 9.379C23.233 5.973 20.737 3.5 17.494 3.5ZM17.494 12.737C15.932 12.737 14.555 11.618 14.555 9.379C14.555 7.28 15.932 6.066 17.494 6.066C18.917 6.066 20.317 7.28 20.317 9.379C20.317 11.618 18.917 12.737 17.494 12.737Z" fill="white"/>
</svg>
